# xmcd
#
# Track frame offsets:
# 188
# 11720
# 22345
# 31700
# 40450
# 51975
# 62278
# 72685
# 84158
# 95060
# 108958
# 126103
# 140725
# 154695
# 171088
#
# Disc length: 2477 seconds
#
#
# Revision: 0
# Processed by: cddbd v1.5.2PL0 Copyright (c) Steve Scherf et al.
# Submitted via: Nero 8, 3, 6, 0 
#
DISCID=cd09ab0f
DTITLE=Rick Nelson - The best of 1964-1973 (MCA Records, Inc.)
DYEAR=1992
DGENRE=Country
TTITLE0=Fooôs Ruch In
TTITLE1=String Along
TTITLE2=There’s Nothing I Can Say
TTITLE3=The Very Thought Of You
TTITLE4=Since I Don’t Have You
TTITLE5=For You
TTITLE6=Mean Old World
TTITLE7=GypsyWoman
TTITLE8=Mystery Train
TTITLE9=She Belongs To Me
TTITLE10=Garden Party
TTITLE11=Easy To Be Free
TTITLE12=Rock And Roll Lady
TTITLE13=Fadeaway
TTITLE14=One Night Stand
EXTD=
EXTT0=Fooôs Ruch In
EXTT1=String Along
EXTT2=There’s Nothing I Can Say
EXTT3=The Very Thought Of You
EXTT4=Since I Don’t Have You
EXTT5=For You
EXTT6=Mean Old World
EXTT7=GypsyWoman
EXTT8=Mystery Train
EXTT9=She Belongs To Me
EXTT10=Garden Party
EXTT11=Easy To Be Free
EXTT12=Rock And Roll Lady
EXTT13=Fadeaway
EXTT14=One Night Stand
PLAYORDER=
